<svg width="32" height="32" viewBox="0 0 32 32" fill="none" xmlns="http://www.w3.org/2000/svg">
<path d="M25.3604 21.7377L21.3334 29.3333M25.3604 21.7377H21.3334M25.3604 21.7377C26.3798 19.4666 26.8895 18.331 26.5738 17.2982C26.5438 17.2 26.5086 17.1037 26.4683 17.0098C26.0445 16.0213 24.9451 15.545 22.7464 14.5925L18.9348 12.9412C17.4863 12.3137 16.7621 12 16 12C15.238 12 14.5137 12.3137 13.0653 12.9412L9.2537 14.5925C7.05498 15.545 5.95562 16.0213 5.53174 17.0098C5.49146 17.1037 5.45624 17.2 5.42624 17.2982C5.11061 18.331 5.62029 19.4666 6.63965 21.7377M10.6667 29.3333L6.63965 21.7377M6.63965 21.7377H10.6667" stroke="#ABB2BE" stroke-width="2" stroke-linecap="round" stroke-linejoin="round"/>
<path d="M24 14.6667V13.6C24 11.5887 24 10.583 23.219 9.95818C22.4379 9.33334 21.1808 9.33334 18.6667 9.33334H13.3333C10.8192 9.33334 9.5621 9.33334 8.78105 9.95818C8 10.583 8 11.5887 8 13.6V14.6667" stroke="#ABB2BE" stroke-width="2" stroke-linecap="round" stroke-linejoin="round"/>
<path d="M21.3333 9.33334V8.53334C21.3333 7.02485 21.3333 6.2706 20.8126 5.80197C20.2919 5.33334 19.4538 5.33334 17.7777 5.33334H14.2222C12.5461 5.33334 11.708 5.33334 11.1873 5.80197C10.6666 6.2706 10.6666 7.02485 10.6666 8.53334V9.33334" stroke="#ABB2BE" stroke-width="2" stroke-linecap="round" stroke-linejoin="round"/>
<path d="M13.3334 5.33332V2.66666" stroke="#ABB2BE" stroke-width="2" stroke-linecap="round" stroke-linejoin="round"/>
<path d="M18.6666 5.33332V2.66666" stroke="#ABB2BE" stroke-width="2" stroke-linecap="round" stroke-linejoin="round"/>
<path d="M16 25.3333V13.3333" stroke="#ABB2BE" stroke-width="2" stroke-linecap="round" stroke-linejoin="round"/>
<path d="M10.6666 29.3333H21.3333" stroke="#ABB2BE" stroke-width="2" stroke-linecap="round" stroke-linejoin="round"/>
</svg>
