<svg width="32" height="32" viewBox="0 0 32 32" fill="none" xmlns="http://www.w3.org/2000/svg">
<path d="M3.33337 16L6.00004 17.3333" stroke="#6366F1" stroke-width="2" stroke-linecap="round" stroke-linejoin="round"/>
<path d="M28.6666 16.6667L26 17.3333" stroke="#6366F1" stroke-width="2" stroke-linecap="round" stroke-linejoin="round"/>
<path d="M10.6666 23.3333L10.9942 22.5144C11.4813 21.2966 11.7249 20.6877 12.2328 20.3439C12.7407 20 13.3965 20 14.7081 20H17.2918C18.6034 20 19.2593 20 19.7672 20.3439C20.2751 20.6877 20.5186 21.2966 21.0057 22.5144L21.3333 23.3333" stroke="#6366F1" stroke-width="2" stroke-linecap="round" stroke-linejoin="round"/>
<path d="M2.66663 22.6667V26.5093C2.66663 27.0143 2.98763 27.476 3.49581 27.7018C3.82553 27.8484 4.14047 28 4.52073 28H6.81252C7.19278 28 7.50772 27.8484 7.83745 27.7018C8.34562 27.476 8.66663 27.0143 8.66663 26.5093V24" stroke="#6366F1" stroke-width="2" stroke-linecap="round" stroke-linejoin="round"/>
<path d="M23.3334 24V26.5093C23.3334 27.0143 23.6544 27.476 24.1626 27.7018C24.4923 27.8484 24.8072 28 25.1875 28H27.4793C27.8595 28 28.1745 27.8484 28.5042 27.7018C29.0124 27.476 29.3334 27.0143 29.3334 26.5093V22.6667" stroke="#6366F1" stroke-width="2" stroke-linecap="round" stroke-linejoin="round"/>
<path d="M26.6666 11.3333L28 10.6667" stroke="#6366F1" stroke-width="2" stroke-linecap="round" stroke-linejoin="round"/>
<path d="M5.33337 11.3333L4.00004 10.6667" stroke="#6366F1" stroke-width="2" stroke-linecap="round" stroke-linejoin="round"/>
<path d="M6 12L7.45107 7.64679C8.03776 5.88673 8.3311 5.00671 9.02946 4.50335C9.72783 4 10.6555 4 12.5107 4H19.4893C21.3445 4 22.2722 4 22.9705 4.50335C23.6689 5.00671 23.9622 5.88673 24.5489 7.64679L26 12" stroke="#6366F1" stroke-width="2" stroke-linejoin="round"/>
<path d="M5.99996 12H26C27.2762 13.3514 29.3333 15.2333 29.3333 17.3328V21.9602C29.3333 22.7209 28.8272 23.3611 28.1557 23.45L24 24H7.99996L3.84417 23.45C3.17269 23.3611 2.66663 22.7209 2.66663 21.9602V17.3328C2.66663 15.2333 4.72367 13.3514 5.99996 12Z" stroke="#6366F1" stroke-width="2" stroke-linejoin="round"/>
</svg>
