<svg width="48" height="48" viewBox="0 0 48 48" fill="none" xmlns="http://www.w3.org/2000/svg">
<circle cx="24" cy="24" r="24" fill="#6366F1"/>
<path d="M9.45455 30H6.00426V19.8182H9.52415C10.535 19.8182 11.4034 20.022 12.1293 20.4297C12.8584 20.834 13.4186 21.4157 13.8097 22.1747C14.2008 22.9337 14.3963 23.8419 14.3963 24.8991C14.3963 25.9598 14.1991 26.8712 13.8047 27.6335C13.4136 28.3958 12.8485 28.9808 12.1094 29.3885C11.3736 29.7962 10.4886 30 9.45455 30ZM7.84872 28.4041H9.36506C10.0743 28.4041 10.666 28.2749 11.1399 28.0163C11.6139 27.7545 11.9702 27.3651 12.2088 26.848C12.4474 26.3277 12.5668 25.678 12.5668 24.8991C12.5668 24.1203 12.4474 23.474 12.2088 22.9602C11.9702 22.4432 11.6172 22.0571 11.1499 21.8018C10.6858 21.5433 10.1091 21.4141 9.41974 21.4141H7.84872V28.4041ZM16.1488 30V19.8182H22.771V21.3643H17.9933V24.1286H22.4279V25.6747H17.9933V28.4538H22.8107V30H16.1488ZM25.9602 30H23.9915L27.576 19.8182H29.853L33.4425 30H31.4737L28.7543 21.9062H28.6747L25.9602 30ZM26.0249 26.0078H31.3942V27.4893H26.0249V26.0078ZM34.7836 30V19.8182H36.628V28.4538H41.1124V30H34.7836Z" fill="white"/>
</svg>
