<svg width="25" height="25" viewBox="0 0 18 18" fill="none" xmlns="http://www.w3.org/2000/svg">
<path d="M9.51829 10.9333L10.0462 11.9979C10.1182 12.1461 10.3102 12.2882 10.4722 12.3154L11.4291 12.4757C12.041 12.5786 12.185 13.0262 11.744 13.4677L11.0001 14.2178C10.8741 14.3448 10.8051 14.5898 10.8441 14.7652L11.0571 15.6937C11.2251 16.4287 10.8381 16.713 10.1932 16.3289L9.29632 15.7936C9.13433 15.6968 8.86736 15.6968 8.70238 15.7936L7.80548 16.3289C7.16355 16.713 6.77359 16.4257 6.94158 15.6937L7.15455 14.7652C7.19355 14.5898 7.12456 14.3448 6.99857 14.2178L6.25465 13.4677C5.8167 13.0262 5.95768 12.5786 6.56962 12.4757L7.52651 12.3154C7.68549 12.2882 7.87747 12.1461 7.94946 11.9979L8.47741 10.9333C8.76537 10.3556 9.23332 10.3556 9.51829 10.9333Z" fill="#6366F1"/>
<path d="M11.9581 2.25962H6.0419C5.58643 2.25962 4.98348 2.12975 4.67199 2.82422C4.5 3.20766 4.5 3.76251 4.5 4.87221C4.5 5.81832 4.5 6.29138 4.61597 6.68993C4.81404 7.37064 5.25688 7.66634 5.63646 7.98791L7.49065 9.55878C8.23131 10.1863 8.60164 10.5 9 10.5C9.39837 10.5 9.76869 10.1863 10.5093 9.55878L12.3635 7.98791C12.7431 7.66634 13.186 7.37064 13.384 6.68993C13.5 6.29138 13.5 5.81832 13.5 4.87221C13.5 3.76251 13.5 3.20766 13.328 2.82422C13.0165 2.12975 12.4136 2.25962 11.9581 2.25962Z" fill="#6366F1"/>
</svg>
