<svg width="32" height="32" viewBox="0 0 32 32" fill="none" xmlns="http://www.w3.org/2000/svg">
<path d="M1.33337 12.9334H10.3242C10.6743 12.9334 11.0128 12.7933 11.2786 12.5386L15.0455 8.92821C15.5948 8.40178 16.4053 8.40178 16.9545 8.92821L20.7214 12.5386C20.9873 12.7933 21.3258 12.9334 21.6759 12.9334H30.6667" stroke="#ABB2BE" stroke-width="2" stroke-linecap="round" stroke-linejoin="round"/>
<path d="M2.80005 12.9334L5.67619 6.22242C6.93984 3.2739 7.86061 2.66675 11.0685 2.66675H20.9316C24.1395 2.66675 25.0603 3.2739 26.3239 6.22242L29.2 12.9334" stroke="#ABB2BE" stroke-width="2" stroke-linecap="round" stroke-linejoin="round"/>
<path d="M2.80005 12.9334V29.0667" stroke="#ABB2BE" stroke-width="2" stroke-linecap="round" stroke-linejoin="round"/>
<path d="M29.2 12.9334V29.0667" stroke="#ABB2BE" stroke-width="2" stroke-linecap="round" stroke-linejoin="round"/>
<path d="M1.33337 29.0667L30.6667 29.0667" stroke="#ABB2BE" stroke-width="2" stroke-linecap="round" stroke-linejoin="round"/>
<path d="M16.0118 14.4001L15.9986 14.4001" stroke="#ABB2BE" stroke-width="2" stroke-linecap="round" stroke-linejoin="round"/>
<path d="M12.3334 29.0667V22.4667C12.3334 21.2517 13.3183 20.2667 14.5334 20.2667H17.4667C18.6817 20.2667 19.6667 21.2517 19.6667 22.4667V29.0667" stroke="#ABB2BE" stroke-width="2" stroke-linecap="round" stroke-linejoin="round"/>
<path d="M7.19995 18.8001H8.66662" stroke="#ABB2BE" stroke-width="2" stroke-linecap="round" stroke-linejoin="round"/>
<path d="M23.3334 18.8001L24.8 18.8001" stroke="#ABB2BE" stroke-width="2" stroke-linecap="round" stroke-linejoin="round"/>
</svg>
