<svg width="14" height="14" viewBox="0 0 14 14" fill="none" xmlns="http://www.w3.org/2000/svg">
<path d="M7.94369 12.4641C7.6907 12.7009 7.35256 12.8333 7.00065 12.8333C6.64874 12.8333 6.31061 12.7009 6.05762 12.4641C3.74093 10.2818 0.636278 7.84403 2.15032 4.30479C2.96895 2.39116 4.93403 1.16666 7.00065 1.16666C9.06727 1.16666 11.0323 2.39116 11.851 4.30479C13.3631 7.83956 10.2661 10.2893 7.94369 12.4641Z" stroke="black" stroke-width="0.875"/>
<path d="M9.04171 6.41667C9.04171 7.54425 8.12762 8.45833 7.00004 8.45833C5.87246 8.45833 4.95837 7.54425 4.95837 6.41667C4.95837 5.28909 5.87246 4.375 7.00004 4.375C8.12762 4.375 9.04171 5.28909 9.04171 6.41667Z" stroke="black" stroke-width="0.875"/>
</svg>
