<svg width="14" height="14" viewBox="0 0 14 14" fill="none" xmlns="http://www.w3.org/2000/svg">
<path d="M8.00836 2.00925L9.03491 4.07932C9.1749 4.36748 9.54819 4.64388 9.86315 4.69681L11.7238 5.0085C12.9136 5.20845 13.1936 6.07882 12.3362 6.93743L10.8897 8.39589C10.6447 8.64289 10.5106 9.11924 10.5864 9.46033L11.0005 11.2658C11.3272 12.6948 10.5747 13.2476 9.32071 12.5008L7.57674 11.4598C7.26177 11.2716 6.74266 11.2716 6.42187 11.4598L4.67789 12.5008C3.4297 13.2476 2.67145 12.6889 2.99808 11.2658L3.4122 9.46033C3.48802 9.11924 3.35387 8.64289 3.1089 8.39589L1.66239 6.93743C0.81082 6.07882 1.08496 5.20845 2.27482 5.0085L4.13545 4.69681C4.44458 4.64388 4.81788 4.36748 4.95786 4.07932L5.98441 2.00925C6.54435 0.885997 7.45425 0.885997 8.00836 2.00925Z" fill="#6366F1"/>
</svg>
